<svg width="720" height="250" viewBox="0 0 720 250" fill="none" xmlns="http://www.w3.org/2000/svg">
<path d="M292.257 111.6C290.39 108 287.99 106.2 285.057 106.2C283.057 106.2 281.19 107.133 279.457 109C277.857 110.867 276.79 113.4 276.257 116.6C276.257 116.867 276.19 117.2 276.057 117.6C276.057 118 276.057 118.267 276.057 118.4C276.057 120.667 276.657 122.867 277.857 125C279.057 127.133 280.524 128.667 282.257 129.6C283.724 130.267 284.657 130.6 285.057 130.6C285.59 130.6 286.524 130.267 287.857 129.6C289.457 128.8 290.857 127.267 292.057 125C293.39 122.6 294.057 120.333 294.057 118.2C294.057 116.2 293.457 114 292.257 111.6ZM277.857 73C279.724 71.9333 281.924 71.4 284.457 71.4C288.59 71.4 292.124 72.4667 295.057 74.6C299.857 78.0667 302.657 82.5333 303.457 88C303.724 90 304.057 91.2 304.457 91.6C304.857 92 306.124 92.4667 308.257 93C313.99 94.4667 318.257 97.6667 321.057 102.6C322.657 105.533 323.457 109.4 323.457 114.2C323.457 119.133 322.924 122.6 321.857 124.6L320.257 127.4L323.057 130.8C327.324 136.267 329.457 142.667 329.457 150C329.457 154.8 328.79 158.667 327.457 161.6C326.257 164.533 324.057 167.067 320.857 169.2C318.19 170.933 315.857 171.8 313.857 171.8C312.257 171.8 310.857 171.733 309.657 171.6C305.124 171.333 301.79 170.467 299.657 169C294.724 165.8 290.857 161.4 288.057 155.8L285.657 151L284.657 154.2C282.657 160.6 278.257 165.533 271.457 169C268.124 170.733 265.124 171.6 262.457 171.6H260.257C253.324 171.2 248.257 167.8 245.057 161.4C243.457 158.6 242.657 155.867 242.657 153.2C242.657 152.8 242.657 152.133 242.657 151.2C242.79 150.267 242.857 149.467 242.857 148.8C243.257 141.467 245.39 135.4 249.257 130.6L251.257 128.2L249.457 124.4C247.99 121.467 247.257 118.267 247.257 114.8C247.257 110.933 248.124 107.133 249.857 103.4C252.924 97.4 257.324 93.8667 263.057 92.8C264.257 92.6667 265.057 92.3333 265.457 91.8C265.857 91.2667 266.19 90.1333 266.457 88.4C267.257 82 271.057 76.8667 277.857 73ZM367.884 128.4C365.75 127.2 363.75 126.6 361.884 126.6C360.284 126.6 358.284 127.133 355.884 128.2C350.95 130.867 348.484 134.2 348.484 138.2C348.484 140.067 348.95 141.867 349.884 143.6C352.684 148.933 356.617 151.6 361.684 151.6C363.284 151.6 365.15 151.133 367.284 150.2C371.55 148.067 373.684 144.4 373.684 139.2C373.684 134.267 371.75 130.667 367.884 128.4ZM328.484 127.6C330.617 120.8 334.484 115.067 340.084 110.4C345.817 105.733 352.35 103.4 359.684 103.4C363.55 103.4 367.684 104.2 372.084 105.8C374.484 106.6 376.084 107 376.884 107C377.417 107 378.484 106.667 380.084 106C382.084 105.067 384.817 104.6 388.284 104.6C391.884 104.6 394.884 105.133 397.284 106.2C402.35 108.6 404.884 113.067 404.884 119.6C404.884 124.267 403.284 127.8 400.084 130.2L397.884 132L399.484 136.8C401.884 143.733 403.084 151.867 403.084 161.2C403.084 164 403.017 166.2 402.884 167.8C402.75 175.8 401.95 181.867 400.484 186C396.75 196.667 390.417 204.267 381.484 208.8C379.084 210 377.217 210.733 375.884 211C374.55 211.267 372.084 211.4 368.484 211.4C363.15 211.4 359.284 210.8 356.884 209.6C354.484 208.267 352.884 207 352.084 205.8C351.417 204.733 351.084 202.933 351.084 200.4C351.084 197.333 351.684 195 352.884 193.4C354.217 191.933 356.75 190.6 360.484 189.4C364.35 188.067 367.284 186.6 369.284 185C371.417 183.4 373.15 181.2 374.484 178.4C375.95 175.467 376.684 172.667 376.684 170C376.684 168.667 376.417 168 375.884 168C375.484 168 374.017 168.467 371.484 169.4C368.684 170.467 364.284 171 358.284 171C353.884 171 350.95 170.933 349.484 170.8C348.15 170.533 346.35 169.867 344.084 168.8C338.884 166.133 334.684 162 331.484 156.4C328.417 150.8 326.884 144.8 326.884 138.4C326.884 135.067 327.417 131.467 328.484 127.6ZM421.526 104.6C423.126 101.933 425.526 99.8667 428.726 98.4C432.059 96.8 435.592 96 439.326 96C445.726 96 450.926 98 454.926 102C457.059 104.133 459.592 105.4 462.526 105.8C470.259 106.867 475.792 111 479.126 118.2C480.592 121.533 481.326 124.867 481.326 128.2C481.326 132.6 480.326 135.933 478.326 138.2C476.859 139.8 476.592 140.733 477.526 141C478.459 141.267 479.526 142.667 480.726 145.2C482.059 147.733 482.726 150.867 482.726 154.6C482.726 158.467 482.059 161.533 480.726 163.8C478.059 169 473.126 171.6 465.926 171.6C460.992 171.6 456.926 170.2 453.726 167.4C449.992 164.067 448.126 160.4 448.126 156.4C448.126 154.667 448.592 151.667 449.526 147.4C450.059 145.267 450.326 143.067 450.326 140.8C450.326 135.067 448.126 131 443.726 128.6C442.659 128.067 441.592 127.8 440.526 127.8C438.926 127.8 437.392 128.733 435.926 130.6C434.859 132.067 434.326 133.733 434.326 135.6C434.326 137.6 435.192 141.2 436.926 146.4C438.659 151.067 439.526 155 439.526 158.2C439.526 161 438.792 163.133 437.326 164.6C433.726 168.2 429.126 170 423.526 170C420.192 170 417.192 169.333 414.526 168C409.992 165.867 406.792 162.733 404.926 158.6C404.126 156.6 403.726 154.533 403.726 152.4C403.726 148.133 405.059 144.467 407.726 141.4L409.926 138.8L405.926 134.8C404.059 132.933 402.926 131.6 402.526 130.8C402.126 129.867 401.926 128.2 401.926 125.8C401.926 121.267 403.326 117.267 406.126 113.8C408.926 110.2 412.392 108.067 416.526 107.4C418.926 107 420.592 106.067 421.526 104.6ZM528.702 123C526.836 119.933 523.836 118.4 519.702 118.4C518.369 118.4 516.902 118.733 515.302 119.4C513.969 119.933 512.769 121 511.702 122.6C510.636 124.067 510.102 125.467 510.102 126.8C510.102 126.933 510.102 127.133 510.102 127.4C510.236 127.533 510.302 127.667 510.302 127.8C510.702 129.133 511.902 130.333 513.902 131.4C515.902 132.467 517.836 133 519.702 133C523.969 133 526.969 131.4 528.702 128.2C529.369 126.867 529.702 125.933 529.702 125.4C529.702 124.867 529.369 124.067 528.702 123ZM497.702 99.6C499.436 98.4 501.636 97.8 504.302 97.8C506.436 97.8 508.436 98.3333 510.302 99.4C512.169 100.6 513.902 100.8 515.502 100C517.102 99.2 519.769 98.8 523.502 98.8C527.369 98.8 530.702 99.2667 533.502 100.2C538.836 102.2 543.302 105.6 546.902 110.4C550.502 115.067 552.302 119.933 552.302 125C552.302 125.933 552.169 127.2 551.902 128.8C550.436 135.467 547.369 139.933 542.702 142.2C537.636 144.733 531.769 146 525.102 146C523.502 146 522.302 145.933 521.502 145.8C520.702 145.667 519.702 145.6 518.502 145.6C516.769 145.6 515.902 145.867 515.902 146.4C515.902 147.067 516.436 147.733 517.502 148.4C518.436 149.2 520.702 149.6 524.302 149.6C527.769 149.6 530.236 149.2 531.702 148.4C533.169 147.467 535.302 147 538.102 147C540.902 147 543.169 147.867 544.902 149.6C546.636 151.333 547.502 153.467 547.502 156C547.502 158.4 546.636 160.8 544.902 163.2C543.302 165.467 541.102 167.267 538.302 168.6C535.369 170.067 530.569 171 523.902 171.4C522.436 171.533 520.569 171.6 518.302 171.6C514.836 171.6 511.502 171.067 508.302 170C500.969 167.6 495.702 164.2 492.502 159.8C489.436 155.4 487.902 149.333 487.902 141.6C487.902 137.733 487.769 135.4 487.502 134.6C487.369 133.8 486.636 133.067 485.302 132.4C482.236 130.533 480.702 127.8 480.702 124.2C480.702 118.733 483.369 114.867 488.702 112.6C490.302 111.933 491.369 111.4 491.902 111C492.436 110.467 492.636 109.933 492.502 109.4L492.302 109C492.302 108.733 492.302 108.533 492.302 108.4C492.302 107.067 492.836 105.467 493.902 103.6C495.102 101.733 496.369 100.4 497.702 99.6ZM567.071 61.2C568.538 60.6667 570.138 60.4 571.871 60.4C574.938 60.4 577.871 61.2 580.671 62.8C583.471 64.2667 585.604 66.2667 587.071 68.8C588.538 71.3333 589.271 74.8 589.271 79.2C589.271 83.7333 588.671 87.2 587.471 89.6L585.471 93.2L587.271 97.6C589.271 102.8 590.271 108.133 590.271 113.6C590.271 119.6 589.071 125.2 586.671 130.4L584.671 135L587.471 141C589.338 144.733 590.271 148.933 590.271 153.6C590.271 161.067 587.538 166.667 582.071 170.4C579.271 172.4 575.404 173.4 570.471 173.4C564.604 173.4 559.871 172 556.271 169.2C552.004 165.733 549.871 160.4 549.871 153.2C549.871 147.733 551.138 142.4 553.671 137.2L556.071 132.4L553.871 126.6C552.538 122.733 551.871 118.267 551.871 113.2C551.871 107.6 552.604 102.8 554.071 98.8C555.271 95.4667 555.871 93.3333 555.871 92.4C555.871 91.8667 555.604 91.0667 555.071 90C553.471 86.9333 552.671 83.8 552.671 80.6C552.671 76.3333 553.938 72.4 556.471 68.8C559.138 65.2 562.671 62.6667 567.071 61.2ZM604.423 61.2C605.889 60.6667 607.489 60.4 609.223 60.4C612.289 60.4 615.223 61.2 618.023 62.8C620.823 64.2667 622.956 66.2667 624.423 68.8C625.889 71.3333 626.623 74.8 626.623 79.2C626.623 83.7333 626.023 87.2 624.823 89.6L622.823 93.2L624.623 97.6C626.623 102.8 627.623 108.133 627.623 113.6C627.623 119.6 626.423 125.2 624.023 130.4L622.023 135L624.823 141C626.689 144.733 627.623 148.933 627.623 153.6C627.623 161.067 624.889 166.667 619.423 170.4C616.623 172.4 612.756 173.4 607.823 173.4C601.956 173.4 597.223 172 593.623 169.2C589.356 165.733 587.223 160.4 587.223 153.2C587.223 147.733 588.489 142.4 591.023 137.2L593.423 132.4L591.223 126.6C589.889 122.733 589.223 118.267 589.223 113.2C589.223 107.6 589.956 102.8 591.423 98.8C592.623 95.4667 593.223 93.3333 593.223 92.4C593.223 91.8667 592.956 91.0667 592.423 90C590.823 86.9333 590.023 83.8 590.023 80.6C590.023 76.3333 591.289 72.4 593.823 68.8C596.489 65.2 600.023 62.6667 604.423 61.2ZM673.374 123C671.508 119.933 668.508 118.4 664.374 118.4C663.041 118.4 661.574 118.733 659.974 119.4C658.641 119.933 657.441 121 656.374 122.6C655.308 124.067 654.774 125.467 654.774 126.8C654.774 126.933 654.774 127.133 654.774 127.4C654.908 127.533 654.974 127.667 654.974 127.8C655.374 129.133 656.574 130.333 658.574 131.4C660.574 132.467 662.508 133 664.374 133C668.641 133 671.641 131.4 673.374 128.2C674.041 126.867 674.374 125.933 674.374 125.4C674.374 124.867 674.041 124.067 673.374 123ZM642.374 99.6C644.108 98.4 646.308 97.8 648.974 97.8C651.108 97.8 653.108 98.3333 654.974 99.4C656.841 100.6 658.574 100.8 660.174 100C661.774 99.2 664.441 98.8 668.174 98.8C672.041 98.8 675.374 99.2667 678.174 100.2C683.508 102.2 687.974 105.6 691.574 110.4C695.174 115.067 696.974 119.933 696.974 125C696.974 125.933 696.841 127.2 696.574 128.8C695.108 135.467 692.041 139.933 687.374 142.2C682.308 144.733 676.441 146 669.774 146C668.174 146 666.974 145.933 666.174 145.8C665.374 145.667 664.374 145.6 663.174 145.6C661.441 145.6 660.574 145.867 660.574 146.4C660.574 147.067 661.108 147.733 662.174 148.4C663.108 149.2 665.374 149.6 668.974 149.6C672.441 149.6 674.908 149.2 676.374 148.4C677.841 147.467 679.974 147 682.774 147C685.574 147 687.841 147.867 689.574 149.6C691.308 151.333 692.174 153.467 692.174 156C692.174 158.4 691.308 160.8 689.574 163.2C687.974 165.467 685.774 167.267 682.974 168.6C680.041 170.067 675.241 171 668.574 171.4C667.108 171.533 665.241 171.6 662.974 171.6C659.508 171.6 656.174 171.067 652.974 170C645.641 167.6 640.374 164.2 637.174 159.8C634.108 155.4 632.574 149.333 632.574 141.6C632.574 137.733 632.441 135.4 632.174 134.6C632.041 133.8 631.308 133.067 629.974 132.4C626.908 130.533 625.374 127.8 625.374 124.2C625.374 118.733 628.041 114.867 633.374 112.6C634.974 111.933 636.041 111.4 636.574 111C637.108 110.467 637.308 109.933 637.174 109.4L636.974 109C636.974 108.733 636.974 108.533 636.974 108.4C636.974 107.067 637.508 105.467 638.574 103.6C639.774 101.733 641.041 100.4 642.374 99.6Z" fill="white"/>
<mask id="path-2-outside-1_36_398" maskUnits="userSpaceOnUse" x="79.2344" y="31.9271" width="149.208" height="150.13" fill="black">
<rect fill="white" x="79.2344" y="31.9271" width="149.208" height="150.13"/>
<path d="M176.552 41.646C174.858 45.2 175.176 49.2698 177.232 52.4888L170.993 65.5768C161.547 60.7043 150.93 58.5203 140.083 59.3446C106.414 61.903 83.1897 92.3654 86.4441 122.946C89.1953 154.697 116.785 178.875 148.98 176.429C167.928 174.989 184.42 164.602 194.178 148.754C194.946 151.125 195.954 153.639 197.268 155.959C195.005 160.094 194.436 164.203 194.395 164.514C194.252 165.62 195.026 166.634 196.124 166.78C197.222 166.926 198.229 166.147 198.373 165.042C198.38 164.989 198.715 162.563 199.899 159.763C202.046 162.273 204.744 164.151 208.121 164.707C217.656 166.277 220.42 156.582 216.228 150.816C214.144 147.949 210.901 146.814 207.331 147.703C204.131 148.5 201.704 150.209 199.87 152.248C198.415 149.207 197.479 145.989 196.936 143.742C206.324 124.508 204.468 101.198 191.887 83.6439L203.801 75.4517C204.014 75.5476 204.228 75.6409 204.448 75.7236C205.486 76.1135 206.641 75.5826 207.027 74.5378C207.414 73.492 206.885 72.3297 205.847 71.9395C200.508 69.9345 199.662 62.6802 204.336 59.4656C207.536 57.2654 211.92 58.0978 214.109 61.3216C216.077 64.2211 215.621 68.1847 213.048 70.5422C212.229 71.2928 212.17 72.57 212.916 73.395C213.662 74.2203 214.93 74.2811 215.749 73.531C219.794 69.8254 220.512 63.5981 217.42 59.0446C213.983 53.9816 207.097 52.6736 202.071 56.1295C198.792 58.3849 197.108 62.1196 197.285 65.8495L184.168 74.8696C182.959 73.7427 182.056 72.962 180.773 71.9342L187.641 57.5257C191.341 57.1385 194.738 54.9066 196.465 51.2823C199.099 45.7584 196.775 39.102 191.285 36.4453C185.782 33.7819 179.192 36.1077 176.552 41.646ZM214.09 156.288C214.319 159.295 212.596 161.352 208.764 160.721C205.992 160.265 203.78 158.395 202.038 155.97C203.504 154.008 205.527 152.314 208.298 151.624C212.024 150.696 213.894 153.7 214.09 156.288ZM145.459 63.2274C145.412 68.1426 144.873 73.178 143.868 78.2554C135.735 74.2894 127.412 71.3901 119.034 69.5982C127.12 65.2618 136.161 63.0652 145.459 63.2274ZM113.898 72.7303C123.698 74.3588 133.466 77.5765 142.969 82.3082C142.125 85.7461 141.072 89.193 139.817 92.6248C128.33 86.6318 116.168 82.7086 104.304 81.1635C107.155 77.9961 110.373 75.161 113.898 72.7303ZM101.248 84.876C113.574 86.1147 126.341 90.0845 138.35 96.4073C137.02 99.6466 135.51 102.864 133.829 106.039C121.526 99.4764 108.449 95.3049 95.7374 93.8807C97.286 90.6988 99.1344 87.6839 101.248 84.876ZM94.0294 97.7622C106.611 98.9841 119.631 103.046 131.879 109.568C130.046 112.752 128.157 115.688 126.134 118.553C114.898 112.667 102.927 108.736 91.2807 107.107C91.9217 103.888 92.8467 100.763 94.0294 97.7622ZM90.3279 121.052C90.1291 117.673 90.2395 114.344 90.6391 111.095C101.671 112.625 113.025 116.314 123.723 121.842C121.488 124.777 119.134 127.562 116.68 130.188C108.081 125.939 99.2312 122.87 90.3279 121.052ZM90.7372 125.265C98.4864 126.951 106.194 129.622 113.717 133.23C110.913 135.992 107.992 138.547 104.972 140.879C101.204 139.227 97.3613 137.787 93.5199 136.586C92.2125 132.984 91.2703 129.196 90.7372 125.265ZM95.5902 141.52C97.4635 142.174 99.3323 142.883 101.186 143.648C100.098 144.4 98.9994 145.123 97.8905 145.817C97.0637 144.424 96.2945 142.992 95.5902 141.52ZM100.076 149.207C127.855 131.789 149.075 96.3782 149.467 63.4473C152.585 63.7353 155.636 64.2923 158.594 65.0969C161.424 99.3903 137.904 140.015 106.459 156.792C104.115 154.469 101.977 151.931 100.076 149.207ZM142.163 172.502C145.739 170.126 149.202 167.456 152.527 164.518C154.129 166.687 155.603 168.898 156.932 171.129C152.256 172.226 147.299 172.729 142.163 172.502ZM160.943 170.022C159.335 167.235 157.512 164.474 155.504 161.78C157.711 159.669 159.85 157.438 161.912 155.093C164.511 159.02 166.663 163.027 168.335 167.05C165.966 168.213 163.497 169.21 160.943 170.022ZM171.886 165.135C169.999 160.669 167.56 156.233 164.611 151.906C166.573 149.501 168.456 146.988 170.255 144.378C173.676 149.936 176.174 155.571 177.703 161.18C175.857 162.618 173.916 163.941 171.886 165.135ZM181.058 158.347C179.245 152.428 176.44 146.513 172.687 140.708C174.464 137.916 176.112 135.068 177.624 132.18C181.843 139.224 184.633 146.505 185.771 153.457C184.303 155.182 182.728 156.815 181.058 158.347ZM189.019 149.24C187.359 142.172 184.194 134.911 179.724 127.954C181.266 124.687 182.634 121.381 183.826 118.06C188.9 126.179 192.048 134.571 193 142.561C191.829 144.885 190.498 147.116 189.019 149.24ZM198.622 122.79C198.225 127.3 197.278 131.669 195.842 135.823C194.003 128.28 190.476 120.581 185.446 113.192C186.647 109.255 187.59 105.314 188.27 101.409C196.086 112.492 197.972 120.858 198.622 122.79ZM198.344 110.629C195.926 105.56 192.804 100.54 189.073 95.7439C189.379 92.9229 189.54 90.1321 189.552 87.3865C194.106 94.1699 197.201 102.059 198.344 110.629ZM198.313 70.0365C198.828 71.1378 199.575 72.1996 200.301 72.9647L189.424 80.4441C188.669 79.5307 187.883 78.639 187.07 77.7681L198.313 70.0365ZM161.804 119.983C161.636 120.322 161.571 120.686 161.598 121.039C161.65 121.723 162.046 122.364 162.7 122.694C163.691 123.194 164.896 122.792 165.392 121.795C173.445 105.612 177.152 88.5794 175.989 73.389C179.423 75.8555 182.569 78.7153 185.354 81.9103C186.715 99.8916 180.794 120.639 169.085 138.883C163.987 146.826 158.096 153.9 151.631 159.897C151.606 159.915 151.581 159.931 151.556 159.949C151.448 160.035 151.354 160.132 151.268 160.234C146.354 164.746 141.112 168.634 135.637 171.811C131.164 171.059 126.86 169.751 122.803 167.954C137.496 159.83 150.868 146.563 160.769 130.194C161.345 129.243 161.045 127.999 160.098 127.419C159.152 126.838 157.918 127.139 157.342 128.091C147.238 144.797 133.426 158.125 118.363 165.74C115.249 164.006 112.316 161.971 109.603 159.672C141.382 141.977 164.768 101.465 162.706 66.3937C165.832 67.5199 168.833 68.9281 171.676 70.5899C173.591 85.8011 170.094 103.324 161.804 119.983ZM183.381 57.1249L177.49 69.4841C176.512 68.8058 175.518 68.1584 174.507 67.5447L180.206 55.5885C181.194 56.2769 182.289 56.7953 183.381 57.1249ZM189.55 40.085C193.046 41.777 194.525 46.0153 192.849 49.5323C191.171 53.0512 186.992 54.5303 183.496 52.8559C179.979 51.1767 178.483 46.9353 180.17 43.3965C181.85 39.87 186.045 38.3892 189.55 40.085Z"/>
</mask>
<path d="M176.552 41.646C174.858 45.2 175.176 49.2698 177.232 52.4888L170.993 65.5768C161.547 60.7043 150.93 58.5203 140.083 59.3446C106.414 61.903 83.1897 92.3654 86.4441 122.946C89.1953 154.697 116.785 178.875 148.98 176.429C167.928 174.989 184.42 164.602 194.178 148.754C194.946 151.125 195.954 153.639 197.268 155.959C195.005 160.094 194.436 164.203 194.395 164.514C194.252 165.62 195.026 166.634 196.124 166.78C197.222 166.926 198.229 166.147 198.373 165.042C198.38 164.989 198.715 162.563 199.899 159.763C202.046 162.273 204.744 164.151 208.121 164.707C217.656 166.277 220.42 156.582 216.228 150.816C214.144 147.949 210.901 146.814 207.331 147.703C204.131 148.5 201.704 150.209 199.87 152.248C198.415 149.207 197.479 145.989 196.936 143.742C206.324 124.508 204.468 101.198 191.887 83.6439L203.801 75.4517C204.014 75.5476 204.228 75.6409 204.448 75.7236C205.486 76.1135 206.641 75.5826 207.027 74.5378C207.414 73.492 206.885 72.3297 205.847 71.9395C200.508 69.9345 199.662 62.6802 204.336 59.4656C207.536 57.2654 211.92 58.0978 214.109 61.3216C216.077 64.2211 215.621 68.1847 213.048 70.5422C212.229 71.2928 212.17 72.57 212.916 73.395C213.662 74.2203 214.93 74.2811 215.749 73.531C219.794 69.8254 220.512 63.5981 217.42 59.0446C213.983 53.9816 207.097 52.6736 202.071 56.1295C198.792 58.3849 197.108 62.1196 197.285 65.8495L184.168 74.8696C182.959 73.7427 182.056 72.962 180.773 71.9342L187.641 57.5257C191.341 57.1385 194.738 54.9066 196.465 51.2823C199.099 45.7584 196.775 39.102 191.285 36.4453C185.782 33.7819 179.192 36.1077 176.552 41.646ZM214.09 156.288C214.319 159.295 212.596 161.352 208.764 160.721C205.992 160.265 203.78 158.395 202.038 155.97C203.504 154.008 205.527 152.314 208.298 151.624C212.024 150.696 213.894 153.7 214.09 156.288ZM145.459 63.2274C145.412 68.1426 144.873 73.178 143.868 78.2554C135.735 74.2894 127.412 71.3901 119.034 69.5982C127.12 65.2618 136.161 63.0652 145.459 63.2274ZM113.898 72.7303C123.698 74.3588 133.466 77.5765 142.969 82.3082C142.125 85.7461 141.072 89.193 139.817 92.6248C128.33 86.6318 116.168 82.7086 104.304 81.1635C107.155 77.9961 110.373 75.161 113.898 72.7303ZM101.248 84.876C113.574 86.1147 126.341 90.0845 138.35 96.4073C137.02 99.6466 135.51 102.864 133.829 106.039C121.526 99.4764 108.449 95.3049 95.7374 93.8807C97.286 90.6988 99.1344 87.6839 101.248 84.876ZM94.0294 97.7622C106.611 98.9841 119.631 103.046 131.879 109.568C130.046 112.752 128.157 115.688 126.134 118.553C114.898 112.667 102.927 108.736 91.2807 107.107C91.9217 103.888 92.8467 100.763 94.0294 97.7622ZM90.3279 121.052C90.1291 117.673 90.2395 114.344 90.6391 111.095C101.671 112.625 113.025 116.314 123.723 121.842C121.488 124.777 119.134 127.562 116.68 130.188C108.081 125.939 99.2312 122.87 90.3279 121.052ZM90.7372 125.265C98.4864 126.951 106.194 129.622 113.717 133.23C110.913 135.992 107.992 138.547 104.972 140.879C101.204 139.227 97.3613 137.787 93.5199 136.586C92.2125 132.984 91.2703 129.196 90.7372 125.265ZM95.5902 141.52C97.4635 142.174 99.3323 142.883 101.186 143.648C100.098 144.4 98.9994 145.123 97.8905 145.817C97.0637 144.424 96.2945 142.992 95.5902 141.52ZM100.076 149.207C127.855 131.789 149.075 96.3782 149.467 63.4473C152.585 63.7353 155.636 64.2923 158.594 65.0969C161.424 99.3903 137.904 140.015 106.459 156.792C104.115 154.469 101.977 151.931 100.076 149.207ZM142.163 172.502C145.739 170.126 149.202 167.456 152.527 164.518C154.129 166.687 155.603 168.898 156.932 171.129C152.256 172.226 147.299 172.729 142.163 172.502ZM160.943 170.022C159.335 167.235 157.512 164.474 155.504 161.78C157.711 159.669 159.85 157.438 161.912 155.093C164.511 159.02 166.663 163.027 168.335 167.05C165.966 168.213 163.497 169.21 160.943 170.022ZM171.886 165.135C169.999 160.669 167.56 156.233 164.611 151.906C166.573 149.501 168.456 146.988 170.255 144.378C173.676 149.936 176.174 155.571 177.703 161.18C175.857 162.618 173.916 163.941 171.886 165.135ZM181.058 158.347C179.245 152.428 176.44 146.513 172.687 140.708C174.464 137.916 176.112 135.068 177.624 132.18C181.843 139.224 184.633 146.505 185.771 153.457C184.303 155.182 182.728 156.815 181.058 158.347ZM189.019 149.24C187.359 142.172 184.194 134.911 179.724 127.954C181.266 124.687 182.634 121.381 183.826 118.06C188.9 126.179 192.048 134.571 193 142.561C191.829 144.885 190.498 147.116 189.019 149.24ZM198.622 122.79C198.225 127.3 197.278 131.669 195.842 135.823C194.003 128.28 190.476 120.581 185.446 113.192C186.647 109.255 187.59 105.314 188.27 101.409C196.086 112.492 197.972 120.858 198.622 122.79ZM198.344 110.629C195.926 105.56 192.804 100.54 189.073 95.7439C189.379 92.9229 189.54 90.1321 189.552 87.3865C194.106 94.1699 197.201 102.059 198.344 110.629ZM198.313 70.0365C198.828 71.1378 199.575 72.1996 200.301 72.9647L189.424 80.4441C188.669 79.5307 187.883 78.639 187.07 77.7681L198.313 70.0365ZM161.804 119.983C161.636 120.322 161.571 120.686 161.598 121.039C161.65 121.723 162.046 122.364 162.7 122.694C163.691 123.194 164.896 122.792 165.392 121.795C173.445 105.612 177.152 88.5794 175.989 73.389C179.423 75.8555 182.569 78.7153 185.354 81.9103C186.715 99.8916 180.794 120.639 169.085 138.883C163.987 146.826 158.096 153.9 151.631 159.897C151.606 159.915 151.581 159.931 151.556 159.949C151.448 160.035 151.354 160.132 151.268 160.234C146.354 164.746 141.112 168.634 135.637 171.811C131.164 171.059 126.86 169.751 122.803 167.954C137.496 159.83 150.868 146.563 160.769 130.194C161.345 129.243 161.045 127.999 160.098 127.419C159.152 126.838 157.918 127.139 157.342 128.091C147.238 144.797 133.426 158.125 118.363 165.74C115.249 164.006 112.316 161.971 109.603 159.672C141.382 141.977 164.768 101.465 162.706 66.3937C165.832 67.5199 168.833 68.9281 171.676 70.5899C173.591 85.8011 170.094 103.324 161.804 119.983ZM183.381 57.1249L177.49 69.4841C176.512 68.8058 175.518 68.1584 174.507 67.5447L180.206 55.5885C181.194 56.2769 182.289 56.7953 183.381 57.1249ZM189.55 40.085C193.046 41.777 194.525 46.0153 192.849 49.5323C191.171 53.0512 186.992 54.5303 183.496 52.8559C179.979 51.1767 178.483 46.9353 180.17 43.3965C181.85 39.87 186.045 38.3892 189.55 40.085Z" fill="white"/>
<path d="M176.552 41.646C174.858 45.2 175.176 49.2698 177.232 52.4888L170.993 65.5768C161.547 60.7043 150.93 58.5203 140.083 59.3446C106.414 61.903 83.1897 92.3654 86.4441 122.946C89.1953 154.697 116.785 178.875 148.98 176.429C167.928 174.989 184.42 164.602 194.178 148.754C194.946 151.125 195.954 153.639 197.268 155.959C195.005 160.094 194.436 164.203 194.395 164.514C194.252 165.62 195.026 166.634 196.124 166.78C197.222 166.926 198.229 166.147 198.373 165.042C198.38 164.989 198.715 162.563 199.899 159.763C202.046 162.273 204.744 164.151 208.121 164.707C217.656 166.277 220.42 156.582 216.228 150.816C214.144 147.949 210.901 146.814 207.331 147.703C204.131 148.5 201.704 150.209 199.87 152.248C198.415 149.207 197.479 145.989 196.936 143.742C206.324 124.508 204.468 101.198 191.887 83.6439L203.801 75.4517C204.014 75.5476 204.228 75.6409 204.448 75.7236C205.486 76.1135 206.641 75.5826 207.027 74.5378C207.414 73.492 206.885 72.3297 205.847 71.9395C200.508 69.9345 199.662 62.6802 204.336 59.4656C207.536 57.2654 211.92 58.0978 214.109 61.3216C216.077 64.2211 215.621 68.1847 213.048 70.5422C212.229 71.2928 212.17 72.57 212.916 73.395C213.662 74.2203 214.93 74.2811 215.749 73.531C219.794 69.8254 220.512 63.5981 217.42 59.0446C213.983 53.9816 207.097 52.6736 202.071 56.1295C198.792 58.3849 197.108 62.1196 197.285 65.8495L184.168 74.8696C182.959 73.7427 182.056 72.962 180.773 71.9342L187.641 57.5257C191.341 57.1385 194.738 54.9066 196.465 51.2823C199.099 45.7584 196.775 39.102 191.285 36.4453C185.782 33.7819 179.192 36.1077 176.552 41.646ZM214.09 156.288C214.319 159.295 212.596 161.352 208.764 160.721C205.992 160.265 203.78 158.395 202.038 155.97C203.504 154.008 205.527 152.314 208.298 151.624C212.024 150.696 213.894 153.7 214.09 156.288ZM145.459 63.2274C145.412 68.1426 144.873 73.178 143.868 78.2554C135.735 74.2894 127.412 71.3901 119.034 69.5982C127.12 65.2618 136.161 63.0652 145.459 63.2274ZM113.898 72.7303C123.698 74.3588 133.466 77.5765 142.969 82.3082C142.125 85.7461 141.072 89.193 139.817 92.6248C128.33 86.6318 116.168 82.7086 104.304 81.1635C107.155 77.9961 110.373 75.161 113.898 72.7303ZM101.248 84.876C113.574 86.1147 126.341 90.0845 138.35 96.4073C137.02 99.6466 135.51 102.864 133.829 106.039C121.526 99.4764 108.449 95.3049 95.7374 93.8807C97.286 90.6988 99.1344 87.6839 101.248 84.876ZM94.0294 97.7622C106.611 98.9841 119.631 103.046 131.879 109.568C130.046 112.752 128.157 115.688 126.134 118.553C114.898 112.667 102.927 108.736 91.2807 107.107C91.9217 103.888 92.8467 100.763 94.0294 97.7622ZM90.3279 121.052C90.1291 117.673 90.2395 114.344 90.6391 111.095C101.671 112.625 113.025 116.314 123.723 121.842C121.488 124.777 119.134 127.562 116.68 130.188C108.081 125.939 99.2312 122.87 90.3279 121.052ZM90.7372 125.265C98.4864 126.951 106.194 129.622 113.717 133.23C110.913 135.992 107.992 138.547 104.972 140.879C101.204 139.227 97.3613 137.787 93.5199 136.586C92.2125 132.984 91.2703 129.196 90.7372 125.265ZM95.5902 141.52C97.4635 142.174 99.3323 142.883 101.186 143.648C100.098 144.4 98.9994 145.123 97.8905 145.817C97.0637 144.424 96.2945 142.992 95.5902 141.52ZM100.076 149.207C127.855 131.789 149.075 96.3782 149.467 63.4473C152.585 63.7353 155.636 64.2923 158.594 65.0969C161.424 99.3903 137.904 140.015 106.459 156.792C104.115 154.469 101.977 151.931 100.076 149.207ZM142.163 172.502C145.739 170.126 149.202 167.456 152.527 164.518C154.129 166.687 155.603 168.898 156.932 171.129C152.256 172.226 147.299 172.729 142.163 172.502ZM160.943 170.022C159.335 167.235 157.512 164.474 155.504 161.78C157.711 159.669 159.85 157.438 161.912 155.093C164.511 159.02 166.663 163.027 168.335 167.05C165.966 168.213 163.497 169.21 160.943 170.022ZM171.886 165.135C169.999 160.669 167.56 156.233 164.611 151.906C166.573 149.501 168.456 146.988 170.255 144.378C173.676 149.936 176.174 155.571 177.703 161.18C175.857 162.618 173.916 163.941 171.886 165.135ZM181.058 158.347C179.245 152.428 176.44 146.513 172.687 140.708C174.464 137.916 176.112 135.068 177.624 132.18C181.843 139.224 184.633 146.505 185.771 153.457C184.303 155.182 182.728 156.815 181.058 158.347ZM189.019 149.24C187.359 142.172 184.194 134.911 179.724 127.954C181.266 124.687 182.634 121.381 183.826 118.06C188.9 126.179 192.048 134.571 193 142.561C191.829 144.885 190.498 147.116 189.019 149.24ZM198.622 122.79C198.225 127.3 197.278 131.669 195.842 135.823C194.003 128.28 190.476 120.581 185.446 113.192C186.647 109.255 187.59 105.314 188.27 101.409C196.086 112.492 197.972 120.858 198.622 122.79ZM198.344 110.629C195.926 105.56 192.804 100.54 189.073 95.7439C189.379 92.9229 189.54 90.1321 189.552 87.3865C194.106 94.1699 197.201 102.059 198.344 110.629ZM198.313 70.0365C198.828 71.1378 199.575 72.1996 200.301 72.9647L189.424 80.4441C188.669 79.5307 187.883 78.639 187.07 77.7681L198.313 70.0365ZM161.804 119.983C161.636 120.322 161.571 120.686 161.598 121.039C161.65 121.723 162.046 122.364 162.7 122.694C163.691 123.194 164.896 122.792 165.392 121.795C173.445 105.612 177.152 88.5794 175.989 73.389C179.423 75.8555 182.569 78.7153 185.354 81.9103C186.715 99.8916 180.794 120.639 169.085 138.883C163.987 146.826 158.096 153.9 151.631 159.897C151.606 159.915 151.581 159.931 151.556 159.949C151.448 160.035 151.354 160.132 151.268 160.234C146.354 164.746 141.112 168.634 135.637 171.811C131.164 171.059 126.86 169.751 122.803 167.954C137.496 159.83 150.868 146.563 160.769 130.194C161.345 129.243 161.045 127.999 160.098 127.419C159.152 126.838 157.918 127.139 157.342 128.091C147.238 144.797 133.426 158.125 118.363 165.74C115.249 164.006 112.316 161.971 109.603 159.672C141.382 141.977 164.768 101.465 162.706 66.3937C165.832 67.5199 168.833 68.9281 171.676 70.5899C173.591 85.8011 170.094 103.324 161.804 119.983ZM183.381 57.1249L177.49 69.4841C176.512 68.8058 175.518 68.1584 174.507 67.5447L180.206 55.5885C181.194 56.2769 182.289 56.7953 183.381 57.1249ZM189.55 40.085C193.046 41.777 194.525 46.0153 192.849 49.5323C191.171 53.0512 186.992 54.5303 183.496 52.8559C179.979 51.1767 178.483 46.9353 180.17 43.3965C181.85 39.87 186.045 38.3892 189.55 40.085Z" stroke="white" mask="url(#path-2-outside-1_36_398)"/>
<path d="M39.7747 137.653C39.1862 137.719 38.8357 138.912 38.5831 139.309C38.0728 140.111 37.2066 141.104 37.0849 142.078C37.042 142.421 36.8653 142.737 36.9447 143.094C37.0163 143.416 37.2514 143.611 37.2514 143.962C37.2514 144.696 37.8822 145.318 37.8822 146.082C37.8822 146.837 38.1976 147.593 38.1976 148.386C38.1976 149.33 38.1976 150.273 38.1976 151.216C38.1976 151.912 38.1224 152.413 37.9172 153.074C37.7467 153.623 37.8856 154.24 37.6894 154.809C36.7808 157.444 36.3051 160.238 36.3051 163.045C36.3051 163.267 36.2476 163.568 36.3927 163.754C36.7094 164.161 36.5204 164.533 36.6994 164.998C37.1089 166.063 37.078 167.279 37.3302 168.389C37.8467 170.662 38.6939 172.627 39.8536 174.689C40.1522 175.22 40.8732 175.79 41.3518 176.099C42.0548 176.554 42.5528 177.31 43.2443 177.746C44.0674 178.266 44.5973 179.353 45.2595 180.042C45.6969 180.497 45.9926 181.496 46.7139 181.496" stroke="#AAD0F4" stroke-width="20" stroke-linecap="square"/>
<path d="M48.4487 190.801C49.149 192.062 50.382 192.876 51.6116 193.552C52.5345 194.06 53.674 194.149 54.5993 194.586C57.0882 195.762 60.1385 195.879 62.5198 197.232C63.6248 197.86 64.9669 197.99 66.1208 198.529C67.6893 199.261 69.5638 199.388 71.2463 199.721C71.9474 199.859 72.6404 200.106 73.3579 200.106C73.8121 200.106 74.2653 200.069 74.7072 200.185C75.9548 200.513 76.7127 200.465 77.7825 199.633" stroke="#AAD0F4" stroke-width="20" stroke-linecap="round"/>
<path d="M141.181 147.747C141.181 148.369 141.291 149.104 141.024 149.639" stroke="#AAD0F4" stroke-width="20" stroke-linecap="round"/>
<path d="M146.386 112.893C146.645 112.926 146.688 113.612 146.701 113.839C146.717 114.115 147.115 113.997 146.386 113.997" stroke="#AAD0F4" stroke-width="20" stroke-linecap="round"/>
<path d="M130.142 106.585C131.774 106.681 128.389 108.552 128.057 108.705C127.512 108.957 126.406 109.266 127.566 109.266C128.944 109.266 130.323 109.266 131.701 109.266C132.335 109.266 132.969 109.266 133.603 109.266C134.489 109.266 134.512 108.551 134.715 107.811C134.761 107.644 135.065 106.929 134.715 106.9C133.408 106.791 132.092 106.648 130.781 106.594C126.795 106.428 124.425 102.815 120.522 102.327" stroke="#AAD0F4" stroke-width="20" stroke-linecap="round"/>
<path d="M58.2266 92.7065C58.7262 91.0411 61.2129 90.0622 62.6074 89.4296C63.4915 89.0286 64.4604 88.7973 65.3936 88.536C65.8709 88.4023 66.3557 88.5218 66.8305 88.4133C67.5516 88.2485 68.1888 87.8175 68.9508 87.8175C69.208 87.8175 69.5697 87.7907 69.4064 87.4232C69.16 86.8687 67.2796 86.8043 66.7779 86.7486C66.2931 86.6947 64.8269 86.7135 65.3147 86.7135C67.2978 86.7135 69.2808 86.7135 71.2639 86.7135C74.6722 86.7135 78.1764 86.8064 81.5149 86.0477C82.3398 85.8602 82.653 85.2896 83.3724 84.9437C84.7701 84.2717 86.5074 84.0325 88.0336 84.0325C89.6437 84.0325 91.3605 83.8297 92.9225 84.2691C94.1367 84.6105 95.3891 84.8082 96.6199 85.1365C98.0158 85.5087 99.3738 86.1576 100.817 86.3981C102.242 86.6358 103.484 87.1867 104.961 87.1867C105.869 87.1867 106.61 87.5524 107.432 87.8263C108.217 88.0882 109.337 88.7058 109.964 89.2544C110.811 89.9953 111.937 90.4047 112.785 91.1469C113.237 91.5422 114.395 92.1719 114.529 92.7065" stroke="#AAD0F4" stroke-width="20" stroke-linecap="round"/>
<path d="M114.686 91.6025C114.686 90.6121 114.5 89.4449 113.495 89.0792C112.917 88.8692 112.174 88.5096 111.69 88.1329C110.905 87.5222 109.67 87.4106 108.763 87.029C108.088 86.7447 107.302 86.7361 106.608 86.5208C105.54 86.1895 104.706 85.925 103.559 85.925C99.8039 85.925 95.9485 86.1609 92.3092 85.0488C90.3191 84.4408 88.6266 83.1736 86.7719 82.2977C85.6564 81.771 84.5991 82.2688 83.6878 82.8584C81.734 84.1227 79.2735 84.5291 76.9939 84.786C75.6735 84.9348 74.2909 84.821 72.9636 84.821C72.0634 84.821 70.8189 84.6056 69.9847 84.9788C69.566 85.166 69.0108 85.1857 68.6441 85.4606C68.3875 85.6531 68.2182 85.8411 67.9344 85.9951C66.9115 86.5504 65.7485 87.2972 64.8328 88.0015C62.7288 89.62 60.9215 90.9557 59.313 93.127C57.5827 95.463 56.6611 97.9578 55.3878 100.504C55.1007 101.079 54.4846 101.717 54.4416 102.362C54.3625 103.548 53.9747 104.79 53.4778 105.866C52.825 107.281 51.2428 108.607 49.9732 109.424C49.6121 109.656 49.734 109.296 49.798 108.977C50.069 107.621 50.7269 106.537 51.2086 105.262C51.4324 104.669 52.0008 104.011 51.0947 104.535C50.1327 105.091 49.2776 105.758 48.4574 106.506C47.4865 107.391 46.5462 108.304 45.6099 109.196C45.0639 109.716 44.2277 110.106 43.5948 110.528C43.1792 110.805 42.5395 111.079 42.0527 111.167C40.9603 111.366 39.9744 112.221 38.8635 112.262C38.4001 112.28 36.0765 112.751 36.1474 112.893" stroke="#AAD0F4" stroke-width="20" stroke-linecap="round"/>
<path d="M34.728 110.054C36.0171 108.909 38.3785 108.635 40.0025 108.635C40.4876 108.635 40.5817 108.542 40.9575 108.25C41.6736 107.693 42.661 107.57 43.3932 107.058C44.9746 105.951 46.4464 104.73 47.9405 103.501C48.6794 102.893 49.3518 102.523 49.9381 101.731C50.2234 101.346 50.6758 100.901 51.1297 100.75" stroke="#AAD0F4" stroke-width="20" stroke-linecap="round"/>
<path d="M92.1539 140.904C91.4879 143.819 90.2245 145.526 89.2218 147.266C88.287 148.889 87.3505 150.533 86.4562 152.335C85.9135 153.428 86.3054 152.918 86.595 152.388C88.2096 149.432 89.7528 146.148 91.4232 143.439C92.3697 141.903 93.3594 140.548 94.3552 139.294C94.8798 138.634 95.7222 137.156 96.3253 137.156C96.3651 137.156 95.5504 140.206 95.4513 140.535C95.236 141.249 95.0475 141.912 94.8177 142.567C94.1047 144.602 92.762 145.656 91.7839 145.656C91.2815 145.656 91.1922 145.752 90.8867 144.6C90.4277 142.869 90.0727 141.239 90.0727 139.004C90.0727 138.133 90.1476 137.309 90.2762 136.522C90.387 135.845 90.3085 135.126 90.489 134.489C91.0577 132.484 89.7465 133.032 89.4761 133.183C88.5982 133.673 87.6574 134.282 86.9973 136.166C86.4598 137.7 85.8383 139.818 85.5775 141.855C85.252 144.398 85.337 146.26 85.6793 148.877C86.0584 151.775 86.4645 154.53 87.1129 157.047C87.8694 159.983 88.6472 161.336 89.9294 162.142C91.1288 162.896 92.2505 163 93.4765 163C94.2893 163 96.7795 160.605 96.3161 157.298" stroke="#AAD0F4" stroke-width="100" stroke-linecap="square"/>
<path d="M83.759 68.6141C81.2862 68.9565 78.6231 69.9456 75.9981 71.5054L73.297 73.1794L70.9003 72.6467C62.6829 70.8207 53.6285 75.4239 49.672 83.413C48.8731 85.0489 47.9601 86.1522 46.5905 87.1794C44.7644 88.587 42.4438 91.4022 41.3025 93.5326C40.922 94.2554 39.5525 95.1685 36.4329 96.6902C25.8188 101.902 22.4709 105.516 22.0525 112.25C21.7862 116.321 22.509 118.832 24.7916 121.685C26.1992 123.473 27.0742 124.12 29.7372 125.451C32.2101 126.63 32.9709 127.201 32.9709 127.772C32.9709 128.19 31.6775 129.902 30.1177 131.614C28.4057 133.478 26.6557 135.875 25.7807 137.587C24.259 140.478 23.0796 145.005 23.0796 147.821C23.0796 149.723 23.9927 154.136 24.8296 156.19C25.4003 157.674 25.4003 157.902 24.6014 160.908C21.3296 172.777 25.4383 184.038 35.3677 190.658C37.0416 191.761 37.4981 192.293 37.6883 193.321C38.0688 195.337 39.6666 198.457 41.2264 200.397C45.0688 205 49.1394 207.13 55.3785 207.815C57.5851 208.043 57.9655 208.234 59.5633 209.793C60.5144 210.707 62.6068 212.114 64.1666 212.875C66.9818 214.207 67.0959 214.245 71.9655 214.283C76.4166 214.359 77.1394 214.435 79.0035 215.31C86.5362 218.81 95.0579 217.859 101.449 212.761L103.123 211.429L107.346 211.658C110.922 211.848 111.949 211.772 114.574 211.049C119.177 209.793 123.476 206.826 126.406 203.022C127.205 201.957 128.042 201.12 128.27 201.12C128.498 201.12 129.944 200.511 131.466 199.788C136.563 197.353 140.558 192.255 141.775 186.663C142.498 183.353 142.498 183.353 144.286 181.261C146.569 178.598 148.357 175.326 149.422 171.826C150.525 168.288 150.639 161.364 149.65 158.397C149.08 156.609 149.08 156.495 149.993 154.516C151.552 151.168 152.199 147.326 151.705 144.435C151.058 140.554 150.297 138.348 148.661 135.875C147.139 133.63 147.139 133.554 147.139 130.168V126.745L149.879 125.413C154.672 123.054 157.487 118.451 157.487 112.859C157.487 107.951 155.509 104.337 151.134 101.103C146.949 98.0598 138.694 93.875 132.455 91.7446C130.781 91.1359 129.297 90.5652 129.107 90.413C128.955 90.2989 128.498 88.9294 128.08 87.4076C126.292 80.9783 121.042 75.7663 114.004 73.4456C111.531 72.6467 105.938 72.5326 103.466 73.2554C101.868 73.6739 101.754 73.6739 99.6612 72.2283C94.8296 68.9946 89.5796 67.8152 83.759 68.6141ZM92.3568 74.4348C95.0199 75.2717 96.8459 76.375 99.1666 78.4674L100.65 79.837L102.781 79.038C108.601 76.8696 114.688 78.087 119.063 82.3478C121.879 85.087 123.895 89.6902 123.895 93.4565C123.895 94.4837 124.047 94.5598 128.726 96.1196C131.427 96.9946 134.851 98.288 136.373 99.0109C137.895 99.7337 139.226 100.304 139.341 100.304C139.417 100.304 140.938 101.103 142.65 102.054C149.65 105.973 151.324 107.647 152.123 111.413C152.694 114.152 152.047 116.625 150.183 118.717C146.607 122.674 140.558 122.636 135.536 118.603C133.672 117.082 132.112 117.12 130.971 118.679C130.21 119.707 130.21 119.783 130.857 120.962C131.884 122.826 137.819 126.554 139.797 126.554C140.177 126.554 140.824 126.783 141.205 127.087C141.851 127.543 141.927 128.152 141.966 131.995L142.004 136.332L143.373 137.967C145.199 140.06 145.922 141.696 146.417 144.587C146.911 147.63 146.15 150.864 144.248 153.565C143.069 155.239 142.955 155.582 143.335 156.342C144.172 157.902 145.199 162.505 145.199 164.788C145.199 170.038 142.993 175.174 139.15 179.016L136.944 181.185L136.754 184.038C136.525 187.462 135.46 189.935 133.139 192.255C131.389 194.043 128.004 195.755 125.721 196.098C124.542 196.25 124.123 196.554 123.362 197.848C121.194 201.576 116.857 204.886 112.862 205.913C110.123 206.598 106.699 206.484 103.656 205.533L101.906 205.038L99.9275 207.016C94.2209 212.799 85.547 213.674 78.8514 209.185C77.1394 208.005 77.1014 208.005 75.6938 208.614C71.6992 210.326 66.0688 208.766 62.6449 205.038C61.5796 203.897 60.7427 202.832 60.7427 202.641C60.7427 202.489 58.8025 202.261 56.4818 202.185C52.7155 202.071 51.9546 201.918 50.1285 200.967C46.0959 198.875 43.0144 194.538 42.5959 190.277C42.4057 188.375 42.3296 188.337 40.1992 187.158C36.8514 185.293 34.3025 183.087 32.6666 180.69C28.3677 174.261 27.6448 167.147 30.5362 159.576L31.4872 157.065L30.2318 154.63C29.0144 152.31 28.9764 152.12 28.9764 147.668C29.0144 143.56 29.0905 142.913 30.0035 140.973C31.1068 138.614 34.5307 134.658 35.1394 135.038C35.3296 135.152 35.5579 136.408 35.5959 137.739C35.8242 145.728 40.5035 154.592 47.3894 160.109C53.9709 165.359 59.7535 167.147 69.3025 166.804C73.6014 166.652 74.7046 166.462 77.634 165.435C88.8949 161.478 96.6557 153.071 99.7753 141.543C100.65 138.348 100.802 136.978 100.841 132.451C100.841 127.239 100.346 123.397 99.3949 121.913C98.8242 120.962 97.6829 121.076 95.9709 122.217C92.2046 124.804 87.3351 123.054 86.2699 118.717C85.5851 116.054 83.7209 115.56 81.134 117.31C79.8405 118.261 79.2699 118.375 76.7209 118.375C74.134 118.375 73.6775 118.261 72.422 117.31C71.509 116.625 70.5579 115.293 69.6829 113.429C68.6938 111.375 68.047 110.5 67.4003 110.348C65.9166 109.967 64.7753 110.348 64.2046 111.337C63.4438 112.745 64.4709 115.94 66.6014 118.87C68.009 120.772 68.7699 121.38 71.1666 122.598C74.4383 124.196 77.0253 124.462 80.259 123.549L82.0851 123.016L83.3785 124.576C85.6231 127.201 87.7535 128.152 91.9383 128.418L95.5525 128.647L95.6666 132.261C96.1612 147.592 84.1775 160.87 69.0362 161.821C60.0199 162.391 51.9546 158.739 46.172 151.549C40.1231 144.016 39.0959 133.022 43.509 122.978C44.7644 120.049 48.1122 114.571 49.9003 112.402L50.7372 111.413L48.5688 109.13C46.8568 107.418 46.2481 106.429 45.7535 104.793C44.0035 98.7065 46.172 93.4185 51.9166 89.8804C52.7916 89.3478 53.5144 88.6631 53.5144 88.3587C53.5144 87.0652 56.3296 82.3478 57.8514 81.0924C62.0362 77.6685 66.9057 76.7174 71.7372 78.3533L74.5144 79.2663L75.7318 78.2772C80.6775 74.0163 86.6883 72.6467 92.3568 74.4348ZM39.9329 103.31C40.1612 105.098 41.7209 108.902 43.0905 110.995C43.7372 111.984 43.7372 112.06 42.2155 114.418C41.3785 115.788 40.1612 117.918 39.4764 119.25L38.297 121.609H36.0144C31.6394 121.609 28.1775 118.87 27.3025 114.685C26.5035 111.071 28.0633 107.951 32.0198 105.288C34.4927 103.652 38.6014 101.484 39.2862 101.446C39.5144 101.446 39.8188 102.283 39.9329 103.31Z" fill="white"/>
<path d="M56.3395 140.901L56.4059 140.754H56.5674H57.9894H58.0328C58.0834 140.745 58.158 140.749 58.2273 140.801C58.296 140.852 58.3162 140.921 58.3225 140.95C58.3262 140.967 58.3275 140.981 58.328 140.992C58.3283 140.998 58.3283 141.003 58.3282 141.007L58.3281 141.013L58.3279 141.016L58.3279 141.018L58.3278 141.019L58.3278 141.019C58.3278 141.019 58.3278 141.019 58.0783 141.004L58.3278 141.019L58.3131 141.254H58.1799C58.1439 141.301 58.0902 141.376 58.0114 141.494C57.8348 141.757 57.5395 142.222 57.0476 143.035L57.0477 143.035L57.0443 143.041C56.7463 143.506 56.4763 144.009 56.2816 144.44C56.1843 144.656 56.1072 144.85 56.0549 145.011C56.0005 145.178 55.9804 145.287 55.9804 145.341C55.9804 145.465 56.0551 145.633 56.2467 145.83C56.4334 146.022 56.7048 146.213 57.0282 146.378C57.6791 146.71 58.4858 146.911 59.1275 146.842L59.1367 146.841L59.146 146.841L59.1504 146.841C59.432 146.831 59.649 146.824 59.8132 146.823C59.9727 146.823 60.1067 146.828 60.2098 146.852C60.3257 146.879 60.4479 146.942 60.5081 147.084C60.5321 147.141 60.5395 147.196 60.5427 147.237C60.5457 147.276 60.5457 147.318 60.5456 147.352V147.357C60.5456 147.486 60.5331 147.625 60.469 147.747C60.3971 147.883 60.2805 147.963 60.1467 148.008C60.0236 148.049 59.8748 148.064 59.7111 148.072C59.5453 148.08 59.3402 148.08 59.0949 148.08H59.0892C58.0689 148.08 56.9463 147.947 55.898 147.262L55.8979 147.262L55.8914 147.257C55.5319 147.006 55.0257 146.756 54.5467 146.543C54.309 146.437 54.0817 146.342 53.8868 146.26C53.8607 146.25 53.8352 146.239 53.8102 146.229C53.6505 146.162 53.5134 146.105 53.4202 146.063C51.851 145.347 51.0097 144.785 50.5739 144.37C50.3566 144.164 50.2265 143.981 50.1654 143.82C50.109 143.672 50.0916 143.474 50.2276 143.338C50.4022 143.163 50.5624 143.032 50.7213 142.972C50.8067 142.94 50.8971 142.926 50.9903 142.939C51.0827 142.953 51.1602 142.991 51.2243 143.037C51.3361 143.116 51.4349 143.24 51.521 143.349C51.5243 143.353 51.5276 143.357 51.5308 143.361L51.5353 143.367C51.6309 143.487 51.7356 143.618 51.8738 143.755C52.0436 143.924 52.3637 144.134 52.7286 144.31C53.0891 144.484 53.4576 144.608 53.7253 144.634C54.1446 144.633 54.3593 144.571 54.5708 144.363C54.8139 144.124 55.0624 143.683 55.4656 142.839L56.3395 140.901Z" fill="white" stroke="white" stroke-width="0.5"/>
<path d="M59.9268 137.948C60.9976 138.359 61.5103 139.618 61.0719 140.76C60.3474 142.647 55.879 143.807 55.879 143.807C55.879 143.807 53.3007 140.045 54.0599 138.067C54.6057 136.646 55.7219 136.333 56.7925 136.744C57.4374 136.992 57.8775 137.548 58.0319 138.2C58.5828 137.819 59.282 137.7 59.9268 137.948Z" fill="white"/>
<path d="M75.6436 135C75.6436 135 76.4703 135.979 77.238 136.277C78.0056 136.575 79.3732 136.446 79.3732 136.446" stroke="white" stroke-width="2" stroke-linecap="round"/>
<circle cx="52.3731" cy="124" r="2" fill="white"/>
</svg>
