<svg width="41" height="41" viewBox="0 0 41 41" fill="none" xmlns="http://www.w3.org/2000/svg">
<path d="M4.55656 0.921875C3.59227 0.922153 2.66759 1.30541 1.98584 1.98736C1.30411 2.66928 0.921122 3.59404 0.921122 4.55829C0.921122 5.52253 1.30411 6.44729 1.98584 7.12922L15.7787 20.9223L1.98584 34.7148C1.30396 35.3968 0.920898 36.3217 0.920898 37.286C0.920898 38.2504 1.30396 39.1752 1.98584 39.8572C2.66778 40.5389 3.59256 40.9219 4.55682 40.9219C5.52109 40.9219 6.44587 40.5389 7.12781 39.8572L20.9212 26.0641L34.7139 39.8572C35.3959 40.5389 36.3207 40.9219 37.285 40.9219C38.2492 40.9219 39.174 40.5389 39.856 39.8572C40.5378 39.1752 40.9209 38.2504 40.9209 37.286C40.9209 36.3217 40.5378 35.3968 39.856 34.7148L26.063 20.9223L39.856 7.12922C40.5377 6.44729 40.9207 5.52253 40.9207 4.55829C40.9207 3.59404 40.5377 2.66928 39.856 1.98736C39.1742 1.3054 38.2495 0.922152 37.2852 0.921875C36.8077 0.921944 36.3348 1.01607 35.8936 1.19888C35.4524 1.3817 35.0516 1.64962 34.7139 1.98736L20.9212 15.7804L7.12781 1.98736C6.79018 1.64963 6.38934 1.38171 5.94816 1.19889C5.50699 1.01608 5.03411 0.921945 4.55656 0.921875Z" fill="#E3839C"/>
</svg>
